<svg xmlns="http://www.w3.org/2000/svg" viewBox="0 0 573.02 785.92">
  <defs>
    <style>
      .cls-1{fill:#354093;}.cls-2{fill:none;stroke:#354093;stroke-miterlimit:10;}
    </style>
  </defs>
  <path class="cls-1" d="M426.35 301.89q2.16 7.73 4.41 15.44c1.87 6.38 3.52 12.93 6.15 19 2.28 5.28 4.7 10.49 6.48 16a59.69 59.69 0 0 1 2.32 9.51c.32 2.15.44 8.78.44 1s-.11-1.25-.52.87c-1.66 8.55-7.47 15-14.84 19.32l0 9.82c.52-9.57.46-19.23.11-28.8a120.76 120.76 0 0 0-1.57-16.77 43.35 43.35 0 0 0-1.76-7 58.76 58.76 0 0 0-4-7.92l-3.54-6.51a7.53 7.53 0 0 1 0 1.46c0 1.18 0 2.36 0 3.54s0 2.36 0 3.54a4.44 4.44 0 0 0 0 1.46 49.73 49.73 0 0 1 3.64 9 54.42 54.42 0 0 1 2.05 9.27c.11.86.19 1.73.25 2.6l.06 1.2c0 .38 0 .09 0 0 .1 2.28.08-8.69 0-7.07 0-.37 0 .26 0 .37a32.61 32.61 0 0 1-.7 5.48c-1.84 8.55-7.49 15.3-15 19.56a58.65 58.65 0 0 1-17.79 6.11q-1.38.27-2.76.48c-.28.05-.59.18-.81.05s-.44-.58-.6-.78l-2.88-3.75-15.35-20-.34-.45v10a60.84 60.84 0 0 0 14.61-7.45 97.74 97.74 0 0 0 28.49-29.11 119.41 119.41 0 0 0 13.47-29.55 6.64 6.64 0 0 0 0-1.47c0-1.18 0-2.36 0-3.53s0-2.36 0-3.54a6 6 0 0 1 0-1.46c-5.19 17-13.8 32.9-26.23 45.66a88.24 88.24 0 0 1-25.22 18.34 39.37 39.37 0 0 1-5.12 2.11c-.27.09 0 4.56 0 5 0 1.18 0 2.36 0 3.54 0 .3-.14 1.24 0 1.46l14.35 18.7 3.55 4.61 1 1.32c.31.39.2.36.7.35a30 30 0 0 0 5.76-1.08c1.74-.4 3.46-.85 5.16-1.37a52.71 52.71 0 0 0 8.63-3.46c8.08-4.17 14.33-11 16.35-20a34.71 34.71 0 0 0 .76-5.57c.25-4.47.21-9 0-13.48a49.83 49.83 0 0 0-1.58-10.3 52.55 52.55 0 0 0-4.34-11.63l-.09-.18v10l1.94 3.57c2.43 4.48 5.2 8.81 6.48 13.79a82 82 0 0 1 2.15 15q.25 3.81.34 7.62c0 .6 0 1.2 0 1.8v.46c0-.84 0 .77 0-.32V376.1c0,.81 0-1 0-.22s0-.78 0-.07c0,.24 0,1 0,.35 0,1.85-.06 3-.13 5 0,.7-.05 1.39-.09 2.08-.1 1.82 0 3.66 0 5.49 0,1 0,1.91 0,2.87a9.17 9.17 0 0 1 0 1.46c6.94-4.06 12.6-10.05 14.55-18 1.32-5.38.94-11.16.86-16.63a49.1 49.1 0 0 0-1.29-10.66 104.35 104.35 0 0 0-6.6-18.19c-.95-2.15-1.94-4.29-2.74-6.5-1.33-3.64-2.35-7.41-3.45-11.11q-3-10-5.77-20.05a7 7 0 0 1 0 1.46c0 1.18 0 2.36 0 3.54s0 2.35 0 3.53a6.54 6.54 0 0 0 0 1.47Z" transform="translate(-5.12 -2.69)"/>
  <path class="cls-1" d="M249.71 391.37c3.24 8.78 6.69 17.49 10.2 26.17 7.4 18.33 15.19 36.52 23.77 54.32 4.3 8.91 8.79 17.74 13.73 26.31 2.17 3.76 4.43 7.47 6.84 11.08 1.34 2 2.82 3.91 4 6 4.54 8.23 6.57 18 8.43 27.1 2.81 13.76 4.65 27.73 6.2 41.69 1.86 16.75 3.23 33.56 4.36 50.38 1.17 17.29 2.07 34.59 2.8 51.9q1 23.56 1.59 47.13.47 17.78.72 35.56c0 1.1 0 2.2 0 3.3 0 .82 0-.19 0-.26v.7c0 .49 0 1 0 1.47l.06 5.16c0 .71 0 1.42 0 2.12s0 2.38 0 .81c0 .78 0 1.56 0 2.34 0 .56 0 1.92 0-.38l.05-6.33H18.44c-4.23 0-8.5-.19-12.72 0H5.18v9.82c.34-4.87.77-10 1.2-15q1.67-19.51 3.77-39 2.94-27.4 6.69-54.73c2.84-20.55 6-41 9.85-61.43 3.73-20.06 8-40 13.33-59.73 4.55-16.82 9.81-33.61 17.11-49.47 5.1-11.09 11.41-22.94 21.19-30.64a57.46 57.46 0 0 1 9.53-5.59q13-6.75 26-13.61 22.95-12.11 45.76-24.45 15.24-8.25 30.44-16.59c2.26-1.24 4.53-2.46 6.77-3.74 1-.56.77-1.13 1-2.31 1.71-8.51 6.43-16.62 13.73-21.48a30.86 30.86 0 0 1 8.54-3.9c1.59-.45 1.75-.12 3.16.58a66.59 66.59 0 0 0 13.19 5.15c4.12 1.07 9.68 2.1 13.21-1a7.35 7.35 0 0 0 0-1.46c0-1.18 0-2.36 0-3.54s0-2.35 0-3.53a6.69 6.69 0 0 1 0-1.47c-3.69 3.24-9.59 2-13.85.83a69.84 69.84 0 0 1-12.76-5.08c-1.63-.83-1.78-.85-3.75-.24a30.39 30.39 0 0 0-8.31 4.06 31.38 31.38 0 0 0-9.88 11.63 37.38 37.38 0 0 0-3.33 9.7c-.25 1.31 0 1.55-1.14 2.17q-10 5.54-20.07 11-44.85 24.45-90.18 48a45.6 45.6 0 0 0-14 10.55 85.89 85.89 0 0 0-10.6 15.64c-7.9 14.46-13.37 30.22-18.11 46-5.76 19.16-10.28 38.69-14.23 58.3-4.11 20.43-7.55 41-10.59 61.6q-4.2 28.49-7.41 57.11Q9 734.39 7 756.2c-.64 7.16-1.26 14.33-1.78 21.5 0 .32-.05.64-.07 1 0 .81-.06 9.82 0 9.82H327.65a21.9 21.9 0 0 0 4.36 0 2.53 2.53 0 0 1 .55 0c.07 0 .05-6.2.05-6.33 0-4.67-.07-9.33-.12-14q-.19-16.11-.55-32.22-.51-22.55-1.33-45.09-.94-25.83-2.44-51.64c-1-17.11-2.24-34.21-3.87-51.28-1.45-15.12-3.17-30.23-5.71-45.21-1.82-10.78-3.87-21.8-7.86-32a54 54 0 0 0-6-10.8 242.61 242.61 0 0 1-13.88-23.81C281.27 457.83 272.92 439 265 420q-7.61-18.22-14.59-36.7c-.24-.63-.47-1.25-.7-1.88a7 7 0 0 1 0 1.47c0 1.18 0 2.36 0 3.53s0 2.36 0 3.54a5.07 5.07 0 0 0 0 1.46Z" transform="translate(-5.12 -2.69)"/>
  <path class="cls-1" d="M197.56 414c.21 2.61.45 5.21.7 7.81q.94 9.83 2.11 19.61c1 8.63 2.21 17.24 3.58 25.82 1.39 8.74 3 17.45 5 26.05a113.81 113.81 0 0 0 6.51 20.67c1.56 3.44 3.95 8.58 8 9.57 3.92.94 8.47.11 12.32-.73a93.85 93.85 0 0 0 15.09-4.88A199.75 199.75 0 0 0 275 506l2.53-1.48c.38-.22.34-.28.67-.16a10.47 10.47 0 0 1 2.14 1.58l4 3L303 522.83l1.31 1a12.89 12.89 0 0 1 0-1.46c0-1.18 0-2.36 0-3.54s0-2.36 0-3.54c0-.22.11-1.35 0-1.46l-15-11.1-9.11-6.76a9.34 9.34 0 0 0-2.11-1.57c-.3-.08-.34 0-.67.21a207.47 207.47 0 0 1-19.42 10.2 135.73 135.73 0 0 1-14.86 5.94 56.1 56.1 0 0 1-14.41 3c-2.52.13-5.33.21-7.45-1.36a15.68 15.68 0 0 1-4-4.94c-3.29-5.69-5.19-12.2-6.89-18.51-2.23-8.32-3.91-16.79-5.38-25.27-1.52-8.74-2.79-17.52-3.91-26.32q-1.38-10.8-2.47-21.64c-.38-3.75-.74-7.5-1.05-11.25 0-.17 0-.34 0-.52.26 3.31-.26 6.69 0 10Z" transform="translate(-5.12 -2.69)"/>
  <path class="cls-1" d="M389 390.54q1.86 3.06 3.69 6.14 4.74 7.94 9.38 15.91 6.36 10.92 12.53 21.94c4.48 8 8.89 16.06 13.14 24.2 3.91 7.47 7.72 15 11.2 22.7a114.15 114.15 0 0 1 6.73 17.47c.27 1 .51 2 .68 3.06.07.45.13.89.17 1.34 0 .19 0 .39 0 .58.06.69.28-5.8 0-3.8a5.44 5.44 0 0 1-3.81 4.4c-3.15 1-6.78-.05-9.77-1.11a67.76 67.76 0 0 1-11.59-5.63c-3.25-1.91-6.42-4-9.51-6.15-1-.68-1.93-1.37-2.89-2.08-.12-.09-.83-.77-1-.74s-.86 2.05-1 2.3l-2.17 5.21-4.63 11.11-.87 2.08a8.36 8.36 0 0 0 0 2.5v1.76a2.32 2.32 0 0 1 0 .74l7.82-18.76c.1-.23.57-1.87.82-1.94s1.11.84 1.25.94q3.79 2.81 7.76 5.35a98.66 98.66 0 0 0 11.34 6.39c3.47 1.63 7.28 3.21 11.16 3.38 2.72.12 5.64-.78 6.75-3.52a5.8 5.8 0 0 0 .32-1.85 47.31 47.31 0 0 0-.06-6.3c-.5-5.17-2.7-10.28-4.65-15-3.06-7.41-6.58-14.63-10.19-21.78-4.19-8.28-8.57-16.46-13-24.58q-6.48-11.77-13.21-23.41-5.28-9.17-10.69-18.27c-1.8-3-3.51-6.2-5.47-9.14l-.26-.42a3.45 3.45 0 0 1 0 .73c0 .59 0 1.18 0 1.77s0 1.18 0 1.77a2.22 2.22 0 0 0 0 .73Z" transform="translate(-5.12 -2.69)"/>
  <path class="cls-1" d="M369.77 358.18c-.28 5.71-.36 11.44-.39 17.15-.05 10.64-.16 21.39 1.11 32a38.13 38.13 0 0 0 2.31 10.41c1.45 3.41 3 6.75 4.36 10.2a199.07 199.07 0 0 1 9.95 33.26c.6 3 1.11 6 1.48 9.06.2 1.61.37 3.23.48 4.85.05.67.09 1.35.12 2l0 .86c.16 3.53.15-7.12 0-4.88-.14 2-.32 4-.35 6.05-.09 5.51-.07 11 .27 16.51.62 10.11 1.7 20.19 2.78 30.25 1.57 14.66 3.29 29.3 5 43.94q3.06 25.67 6.2 51.33 3.21 26.48 6.32 53c1.88 16.21 3.72 32.43 5.38 48.66 1.31 12.87 2.57 25.76 3.39 38.67.28 4.34.51 9.09.59 13.08 0-1.44 0 1.38 0-.71 0-1.08 0-2.17 0-3.25 0-.81 0-.89 0-1.41 0,.12 0,.71 0,.52 0,.25 0,1.35-.08 1.93a23.28 23.28 0 0 1-.36 3.12 4.53 4.53 0 0 1-.62 1.75c-.54.78.26 10 0 10l15.9.2 38.2.47 46.46.58 40 .49 13.24.17 4.06.05a6.94 6.94 0 0 0 2.18 0c.06 0 .21 0 .28 0s.06-9 0-9.82c-.22-4.11-.5-8.21-.78-12.31q-1.14-16.35-2.64-32.67-2.15-23.55-5-47c-2.23-18.45-4.78-36.87-7.77-55.22-3.11-19.1-6.68-38.13-11-57a518.84 518.84 0 0 0-14.75-53.07c-5.05-14.73-11-29.35-19-42.75-6-10-13.41-20-23.5-26.18-12.63-7.75-25.79-14.8-38.93-21.62-8.8-4.57-17.71-9-26.81-12.89a165.06 165.06 0 0 0-15.68-6c-2.06-.65-4.48-1.62-6.67-1.71-.24 0-.47-.07-.7-.09.1 0-.26 10 0 10 4.74.26 9.77 2.52 14.12 4.17 19 7.2 37 16.91 54.68 26.74 6.7 3.72 13.45 7.41 20 11.42a48.34 48.34 0 0 1 6.4 4.74 74.68 74.68 0 0 1 11.7 13.15c8.57 12 14.78 25.55 20.06 39.23a434.1 434.1 0 0 1 15.7 50.88c4.7 18.76 8.56 37.72 11.92 56.76 3.28 18.63 6.07 37.34 8.51 56.09q3.21 24.79 5.63 49.68 1.79 18.38 3.17 36.8.66 8.88 1.19 17.78c0 .26 0 .52 0 .78v-9.82l-15.9-.2L524 777.81l-46.46-.58-40-.49-13.24-.17c-2.06 0-4.18-.2-6.24-.07h-.29v10c.94-1.35.9-3.54 1-5.1.37-5.91.22-11.89.07-17.8-.27-10.67-1.2-21.32-2.16-32-1.35-15-2.95-29.89-4.61-44.82q-2.9-25.91-6-51.77-3.17-26.4-6.39-52.79-2.9-23.94-5.68-47.89c-1.41-12.31-2.79-24.62-3.91-37-.38-4.23-.74-8.47-1-12.71-.05-.8-.09-1.6-.12-2.39l0-1.08a5.52 5.52 0 0 1 0-.62c0,.87 0,2.33 0,3.41 0,.9-.08 2.49 0,3.65v-.21c0,.63 0-.1 0-.31.06-.9.16-1.85.22-2.79 1.56-24.24-4.27-47.87-13.5-70.14-1.24-3-2.86-5.9-3.74-9a65.18 65.18 0 0 1-1.86-12.11c-.38-4.61-.53-9.46-.6-13.95v1s0-.74,0-.28c0-.89 0-1.78 0-2.67,0-1.63.06-3.27.11-4.9s.1-3,.18-4.49c.14-3-.15-7.28 0-9.64Z" transform="translate(-5.12 -2.69)"/>
  <path class="cls-1" d="M332.56 788.48l28.85-.68 45.92-1.07 10.45-.24c.16 0 0-10 0-10l-28.85.67L343 778.23l-10.45.25c-.15 0 0 10 0 10Z" transform="translate(-5.12 -2.69)"/>
  <path class="cls-1" d="M288.56 481.7c9.07 2.1 18.31 3.59 27.54 4.79 16.81 2.2 34.36 3.61 51.19.8 7.67-1.28 15.81-3.57 21.71-8.9a6.73 6.73 0 0 0 0-1.46c0-1.18 0-2.36 0-3.54s0-2.35 0-3.53a6.74 6.74 0 0 1 0-1.47c-5.18 4.68-12.12 7-18.84 8.37a117.53 117.53 0 0 1-25.33 2 278.66 278.66 0 0 1-46.52-5.05c-3.26-.6-6.52-1.23-9.75-2,.1 0-.05 4.61-.05 5s-.22 4.94.05 5Z" transform="translate(-5.12 -2.69)"/>
  <path class="cls-1" d="M143.47 788.48c.4-2.75.76-5.51 1.13-8.26q1.46-11.18 2.69-22.37 1.82-16.49 3.22-33 1.67-19.77 2.67-39.57 1.11-22.49 1.16-45c0-15.59-.21-31.18-1.28-46.73a324.74 324.74 0 0 0-4.75-39c-2.08-10.91-4.87-21.81-9.41-32a128.5 128.5 0 0 0-10-17.32 243.28 243.28 0 0 0-16.21-22.46c-5.09-6.15-10.69-12.44-17.62-16.53-3-1.76-7.27-3.68-10.71-2a3.55 3.55 0 0 0-1.12.79 6.22 6.22 0 0 0 0 1.47c0 1.17 0 2.35 0 3.53s0 2.36 0 3.54a5.19 5.19 0 0 1 0 1.46c1.12-1.3 3.3-1.5 4.87-1.36a16.68 16.68 0 0 1 6.67 2.39 50.86 50.86 0 0 1 10.26 8.23 145.4 145.4 0 0 1 14.42 17.21 258.56 258.56 0 0 1 15.81 23.9c5.08 8.83 8.29 18.69 10.72 28.55a258.24 258.24 0 0 1 6 36.46c1.37 13.73 2 27.53 2.22 41.32 0 .74 0 1.3 0 2.12 0 .37 0 .73 0 1.09v1c0 .36 0 1.38 0 .45v2.08c0 .21 0 .88 0-.1V639c0 .43 0 .86 0 1.28 0 .12 0 .75 0,.08 0,.19 0,.37 0,.55 0,.49 0,1 0,1.46 0,1.59 0,3.16-.07 4.86q-.19 10.5-.64 21-.84 20-2.44 39.88-1.34 17-3.14 33.89-1.29 12.24-2.83 24.46c-.49 3.86-1 7.71-1.55 11.57 0,.16 0,.33-.07.5a34.74 34.74 0 0 0-.05 5 36.3 36.3 0 0 1 .05 5Z" transform="translate(-5.12 -2.69)"/>
  <path class="cls-1" d="M200 428.33l-9.31 4.76-22.23 11.38-27 13.83-23.24 11.9-7.7 3.94-2.38 1.22a5.53 5.53 0 0 0-1.26.64.48.48 0 0 1-.16.08 9.61 9.61 0 0 0 0 1.47c0 1.18 0 2.36 0 3.53s0 2.36 0 3.54a9.3 9.3 0 0 1 0 1.46l9.31-4.76 22.23-11.38 27-13.82 23.25-11.9 7.69-3.94 2.38-1.22a5.43 5.43 0 0 0 1.27-.65s.11-.06.16-.08a10.85 10.85 0 0 0 0-1.47c0-1.17 0-2.35 0-3.53s0-2.36 0-3.54a10.55 10.55 0 0 1 0-1.46Z" transform="translate(-5.12 -2.69)"/>
  <path class="cls-1" d="M417.78 438.33l25.59 12 40.75 19.06 9.31 4.35s0-1.68 0-1.47c0-1.17 0-2.35 0-3.53s0-2.36 0-3.54a6.3 6.3 0 0 0 0-1.46l-25.59-12-40.75-19.05-9.31-4.35s0 1.68 0 1.46c0 1.18 0 2.36 0 3.54s0 2.36 0 3.53a6.39 6.39 0 0 0 0 1.47Z" transform="translate(-5.12 -2.69)"/>
  <path class="cls-1" d="M154.29 601.16l18.12-.46 26.34-.67 39.08-1 36.47-.93 12.54-.32 3.85-.1a7.67 7.67 0 0 0 2.09-.05 1.22 1.22 0 0 1 .27 0c.15 0 0-10 0-10l-15.19.38-35.22.9-39.58 1-28.63.73-18.22.46-1.92 0c-.16 0 0 10 0 10Z" transform="translate(-5.12 -2.69)"/>
  <path class="cls-1" d="M168.9 600.79l4.47 31.83.35 2.48c0 .17 0 .52.11.64s.68.21.86.27l2 .61 15.49 4.77 34.72 10.68a6.7 6.7 0 0 0 2 .59 3.2 3.2 0 0 0 .87-.38l2-.84 15.4-6.63 31.26-13.47.58-.25a11.1 11.1 0 0 0 0-1.47c0-1.18 0-2.35 0-3.53V594.4c0-.37 0-5-.05-5s-.05 5-.05 5v31.69l.05-5-27.1 11.68-17.42 7.5-4.74 2c-.57.25-.7.38-1.26.23-3.9-1-7.74-2.39-11.6-3.57L197 632.89l-17.62-5.43L174.63 626c-.8-.25-.81-.14-.92-1L169 591.75l-.14-1a11.9 11.9 0 0 1 0 1.47c0 1.17 0 2.35 0 3.53a36.26 36.26 0 0 0 .05 5Z" transform="translate(-5.12 -2.69)"/>
  <path class="cls-1" d="M236.09 623.15c0-.1 0 0 0 .21v-.18a8.6 8.6 0 0 1-17.14 0l0 .18q-.17-2.52 0 4.11c-.1 4.42-.09 5.78 0 4.1l0 .18a8.6 8.6 0 0 1 17.14 0v-.18c0,.25 0,.32 0,.21s-.05 1.08 0,.51a16.07 16.07 0 0 0 0-2.3q0-3.42 0-6.84a9.67 9.67 0 0 0-1.61-5.65 8.57 8.57 0 0 0-4.37-3.21 8.68 8.68 0 0 0-9.92 3.58 10.9 10.9 0 0 0-1.36 6.06 92 92 0 0 0 .06 9.25 8.6 8.6 0 0 0 10 7.77 8.62 8.62 0 0 0 5.19-3 9.52 9.52 0 0 0 2-6.19q0-3.42 0-6.84a15.9 15.9 0 0 0 0-2.29C236.05 622.11 236.08 623.25 236.09 623.15Z" transform="translate(-5.12 -2.69)"/>
  <path class="cls-1" d="M187.92 641.07l1.86 24.82 3 40 .49 6.55a18.14 18.14 0 0 0 .26 3.38c.13.49.09.35.71.35h67.64a33.14 33.14 0 0 0 3.86 0 3.84 3.84 0 0 1 .48 0l0-.18.91-27.47 1.44-43.41.33-9.88c.07-2.05 0-4.11 0-6.15 0-1 0-2 0-3 0-.09 0-1 0-.51l-.5 15.09-1 31.64-.92 27.75a55.06 55.06 0 0 1-.2 6c-.06.39 0,.08 0,.08a1.08 1.08 0 0 1-.4 0 16.56 16.56 0 0 0-2.44 0H196.2a9.72 9.72 0 0 1-2.35 0c-.4-.11-.18.1-.31-.31a11.38 11.38 0 0 1-.18-2.34l-.31-4.17-1-12.73-2.43-32.37L188 632.18l-.08-1.11c.25 3.3-.25 6.68 0 10Z" transform="translate(-5.12 -2.69)"/>
  <path class="cls-1" d="M431.79 612.82c0 3.44-2.78 6.64-5.93 7.76a9 9 0 0 1-9.72-2.54 9 9 0 0 1-2.13-4.67l0-.24q-.23-2.62 0 4v4.32a5.32 5.32 0 0 1 .06-.56 8 8 0 0 1 .24-1.18 9.17 9.17 0 0 1 1.18-2.56 9 9 0 0 1 9.15-3.81c3.73.73 7.16 4.18 7.21 8.11 0-.18 0 1.07 0,.5a16.07 16.07 0 0 0 0-2.3c0-2.28 0-4.56 0-6.84a9.85 9.85 0 0 0-1.67-5.85 8.93 8.93 0 0 0-14.86.38 11.24 11.24 0 0 0-1.42 6.25 92.65 92.65 0 0 0 .06 9.28 8.94 8.94 0 0 0 .79 3 8.95 8.95 0 0 0 15 2 9.78 9.78 0 0 0 2.09-6.4c0-2.28 0-4.57 0-6.85a15.9 15.9 0 0 0 0-2.29C431.76 611.78 431.79 612.92 431.79 612.82Z" transform="translate(-5.12 -2.69)"/>
  <path class="cls-1" d="M440.74 706.85c0 3.45-2.78 6.64-5.93 7.76A9 9 0 0 1 423 707.4l0-.24q-.21-2.62 0 4v4.32c0-.18 0-.37.05-.55a9.68 9.68 0 0 1 .25-1.19 9.3 9.3 0 0 1 1.18-2.56 9 9 0 0 1 9.15-3.81c3.73.73 7.16 4.18 7.21 8.11 0-.18 0 1.08 0,.5a16.06 16.06 0 0 0 0-2.3c0-2.28 0-4.56 0-6.84a9.89 9.89 0 0 0-1.67-5.85 8.94 8.94 0 0 0-4.54-3.34 9 9 0 0 0-10.33 3.73 11.36 11.36 0 0 0-1.42 6.24c0 3.07-.2 6.22.07 9.29a8.94 8.94 0 0 0 .79 3 9 9 0 0 0 15 2 9.82 9.82 0 0 0 2.09-6.41c0-2.28 0-4.56 0-6.84a16 16 0 0 0 0-2.3C440.7 705.81 440.74 707 440.74 706.85Z" transform="translate(-5.12 -2.69)"/>
  <path class="cls-1" d="M304.34 721.11H324.8c.07 0 .07-10 0-10H304.34c-.08 0-.08 10 0 10Z" transform="translate(-5.12 -2.69)"/>
  <path class="cls-1" d="M299.4 597.64h18.34c.07 0 .08-10 0-10H299.4c-.08 0-.08 10 0 10Z" transform="translate(-5.12 -2.69)"/>
  <path class="cls-2" d="M223.67 261" transform="translate(-5.12 -2.69)"/>
  <g>
    <path class="cls-1" d="M397.47 112.91a64.48 64.48 0 0 1 9.2 7.08 89.93 89.93 0 0 1 17.57 21.25 78.61 78.61 0 0 1 10.87 35.6c0 .82.07 1.63.09 2.45.07 2.51.09-8.48 0-5.15l-.06 1.55c-.12 2.38-.27 4.77-.39 7.16-.21 4.3-.4 8.61-.54 12.91-.27 8-.37 16-.37 24 0 6.25.05 12.51.29 18.77.06 1.55.14 3.09.19 4.64 0 .56 0 1.12 0 1.68 0 .24 0 .48 0 .72 0 .94 0-1.69 0-1.42s0-2.35 0-1.41c0 .24 0 .48 0 .72 0 .64 0 1.27-.05 1.91q-.23 7.14-1 14.26a160.93 160.93 0 0 1-14 50.28 118 118 0 0 1-12.74 21.27c-4.95 6.52-10.63 12.62-17.48 17.16a59.67 59.67 0 0 1-43.69 8.58 184.72 184.72 0 0 1-26.7-6.94 143.91 143.91 0 0 1-29.06-13.55A106.4 106.4 0 0 1 263.48 314a95.06 95.06 0 0 1-17.82-33.5c-.49-1.68-.95-3.36-1.36-5.06-.21-.84-.4-1.68-.59-2.52a15.79 15.79 0 0 0-.52-2.56c-.09 0-.44.25-.51.29a23.52 23.52 0 0 1-17.69 1.9c-7.74-2.49-13.12-9.27-16.77-16.22a86.57 86.57 0 0 1-6.93-19 59.88 59.88 0 0 1-1.38-6.07c0-.08 0-.17 0-.25 0-.45 0,.55 0,.08s0,.81 0,.52c0 1.64 0 3.7 0 5.48 0 .59 0,.94 0,1.37 0-.39 0,.08 0,.08.16-4.75.93-9.75 3.35-13.91a12.64 12.64 0 0 1 5.75-5.36c3.21-1.4 6.84-1.18 10.17-.36 5.68 1.42 10.93 4.47 15.75 7.71 1.67 1.12 3.3 2.29 4.91 3.5.65.49.39.46.76.07a17.58 17.58 0 0 0 1.93-3c6.34-10.13 11.68-21.2 14.65-32.8 2.22-8.68 2.33-17.48 2-26.4v9.82c2.41-4.4 4.62-8.93 6.69-13.5a123.5 123.5 0 0 0 4.64-11.54 35.6 35.6 0 0 0 2.18-10c.11-3,.06-5.93 0-8.89a17.75 17.75 0 0 0-.16-2.91c-.08-.41-.19-.82-.3-1.22.22.82-1.26 12.78.16 8.75.64-1.8 2.41-3.2 3.87-4.32 5.26-4.06 11.5-7 17.5-9.74 6.45-3 13-5.7 19.65-8.28q3.27-1.27 6.55-2.49a7.52 7.52 0 0 1 2.24-.8 3.3 3.3 0 0 1 .83.34c.61.25 1.23.49 1.84.72q3.23 1.24 6.5 2.35A169.85 169.85 0 0 0 351.84 122c7.75 1.6 15.77 2.65 23.7 2.08 6.8-.49 14-2.31 18.94-7.28a20 20 0 0 0 3-3.86 6.1 6.1 0 0 0 0-1.46c0-1.18 0-2.36 0-3.54s0-2.36 0-3.53a4.89 4.89 0 0 1 0-1.47c-7.14 11.9-23.38 12.13-35.56 10.71a153.46 153.46 0 0 1-35.86-9.2c-1.15-.43-2.29-1-3.46-1.35-.49-.16-.54-.1-1.08.09q-5.81 2.11-11.55 4.42c-6.22 2.48-12.41 5.1-18.46 8-5.3 2.53-10.77 5.18-15.41 8.82a11.3 11.3 0 0 0-3.56 3.91 3.28 3.28 0 0 0-.26.86 42.32 42.32 0 0 0-.08 6.66 24.62 24.62 0 0 0 .08 4c.07.4.21.78.29 1.18s.06.51.09.76c.4 3.31.31-11.91 0-7.85a19.12 19.12 0 0 1-.29 2.13 42.45 42.45 0 0 1-1.18 4.73 102.71 102.71 0 0 1-3.94 10.5c-2.28 5.32-4.82 10.54-7.55 15.64a5.48 5.48 0 0 0-.48.89 14.54 14.54 0 0 0-.05 3.67c0 1.89 0 3.77 0 5.65.09 4.2.16-9.1 0-5.7 0,.73-.07 1.46-.13 2.19a70 70 0 0 1-3 14.88 121 121 0 0 1-10.93 24.43c-1.25 2.17-2.54 4.31-3.92 6.4-.15.23-.5 1-.76 1.13s-1.9-1.36-2.13-1.53c-1.1-.8-2.21-1.58-3.34-2.34-8.09-5.44-23.19-13.94-30.85-3.26a23.58 23.58 0 0 0-3.73 10.2c-.82 5.33-.59 10.87-.48 16.22a23.84 23.84 0 0 0 .82 5.06 105.79 105.79 0 0 0 4.53 14.87c2.56 6.5 6 13 11.21 17.76A22.23 22.23 0 0 0 238 282.57a26.65 26.65 0 0 0 3.23-1.2 8 8 0 0 1 1.74-.89c.44 0,.21 0,.37.81q.75 3.69 1.75 7.32a95.5 95.5 0 0 0 36.2 52.21c12.12 9 25.95 15.51 40.28 20.14a182.6 182.6 0 0 0 19 5 92.81 92.81 0 0 0 11.23 1.82 59.43 59.43 0 0 0 16.36-.92 58 58 0 0 0 28.47-14.55c8.53-8 15.29-17.92 20.62-28.3 11.25-21.95 16.59-46.64 17.14-71.21.17-7.73.11-15.48-.21-23.2-.06-1.54-.11-3.07-.15-4.61 0-.71 0-1.42 0-2.14l0-1.34c0-.06 0-1 0-.31 0-.28 0-.56 0-.84s0-.38 0-.57c0-1 0,.85 0-.16v-.59s0,1.09 0,0v-.17c0,1.22 0,.17 0-.11 0-1.11 0,.79 0-.33v-.68c0-.56 0-.93 0-1.31 0-1.34 0-2.68.07-4,.12-5.63.33-11.26.59-16.88.59-12.57 1.62-25.38-.56-37.85a78.48 78.48 0 0 0-8.55-24.22 88.74 88.74 0 0 0-23.44-27.3 49 49 0 0 0-4.6-3.26s0,1.67 0,1.47c0,1.17 0,2.35 0,3.53s0,2.36 0,3.54C397.44 111.65 397.34 112.83 397.47 112.91Z" transform="translate(-5.12 -2.69)"/>
    <path class="cls-1" d="M283.17 191.55a34.94 34.94 0 0 1 9.81-7.19 49.31 49.31 0 0 1 28.43-5.07 73.08 73.08 0 0 1 23.85 7.32 15 15 0 0 1 0-2.5c0-.26.2-2.39 0-2.5-11.9-5.8-25.3-9.23-38.54-6.92a45.45 45.45 0 0 0-20.41 9 24.26 24.26 0 0 0-3.14 2.85c-.28.32 0 2.07 0 2.5 0 .59 0 1.18 0 1.77a3 3 0 0 1 0 .73Z" transform="translate(-5.12 -2.69)"/>
    <path class="cls-1" d="M429.22 180.25a36.87 36.87 0 0 0-11.07-5.45 33.57 33.57 0 0 0-25.33 1.72 28.13 28.13 0 0 0-9.7 7.45A24.57 24.57 0 0 0 379 192a38.53 38.53 0 0 0-1.49 9.11 95 95 0 0 0 .11 12.05c.82 11 4 21.9 8.1 32.11.6 1.49 1.29 2.93 1.93 4.4a38.29 38.29 0 0 1 2 5.72 25 25 0 0 1 .65 3.54c0 .34.06.67.08 1 .15 2 .2-5.3 0-3.15a13.57 13.57 0 0 1-.27 1.79c-1.69 7.13-10.64 6.5-16.29 5.71-5.28-.74-10.88-2.66-14.83-6.4a5.2 5.2 0 0 1-.57-.58 5.54 5.54 0 0 1 0 .74c0 .58 0 1.17 0 1.76s0 1.18 0 1.77c0,.14-.07.63 0,.73 2.39 2.8 6.27 4.57 9.67 5.68A38 38 0 0 0 381 269.68c2.78-.1 5.76-.7 7.61-3 1.51-1.85 1.77-4.2 1.8-6.5a37.71 37.71 0 0 0-.74-9.61 42.19 42.19 0 0 0-2.85-7.68 111.11 111.11 0 0 1-7.77-24.57 83.16 83.16 0 0 1-1.4-9.8c-.07-.89-.12-1.78-.16-2.66 0-.19 0-.37 0-.55-.06-1.44 0,2.48 0,2.11s0-.91.05-1.37a40.63 40.63 0 0 1 .52-4.92c1-6 3.6-11.73 8.41-15.6a33.42 33.42 0 0 1 26.42-7 40 40 0 0 1 15.55 6.18c.26.17.52.35.77.54a10.53 10.53 0 0 1 0-2.5c0-.35.26-2.28 0-2.5Z" transform="translate(-5.12 -2.69)"/>
    <path class="cls-1" d="M299.16 217.5c4.63-7.35 13.16-14.26 22.26-13.65A22 22 0 0 1 333.5 209a7.93 7.93 0 0 1 0-1.88c0-.27.2-1.7 0-1.87-5.77-4.59-12.89-6.68-20-3.92a30.94 30.94 0 0 0-12.28 9.54 30.6 30.6 0 0 0-2.1 2.84c-.22.35 0 1.47 0 1.88s.24 1.53 0 1.87Z" transform="translate(-5.12 -2.69)"/>
    <ellipse class="cls-1" cx="310.02" cy="210.86" rx="8.48" ry="10.55"/>
    <path class="cls-1" d="M389 215.42a36.25 36.25 0 0 1 6.07-5.61c3.75-2.78 8.5-5.18 13.3-4.34a13.3 13.3 0 0 1 7.91 5.19c-.18-.24 0-1.56 0-1.88s.23-1.57 0-1.87a13.64 13.64 0 0 0-6.92-5 12.71 12.71 0 0 0-7.2.31c-4.22 1.34-7.92 4.14-11.06 7.19-.72.71-1.44 1.44-2.1 2.22-.21.26 0 1.54 0 1.88s.24 1.61 0 1.87Z" transform="translate(-5.12 -2.69)"/>
    <ellipse class="cls-1" cx="394.58" cy="212.94" rx="7.64" ry="9.07"/>
    <path class="cls-1" d="M429.22 148.66a60.36 60.36 0 0 0 3.08-6.25 72.22 72.22 0 0 0 4.79-15.25 58.35 58.35 0 0 0 1-10.21c.06-5.45.34-11.09-.72-16.48A29.87 29.87 0 0 0 427 83.09c-7.84-6.45-18.15-9.24-28-10.63-1.71-.24-3.41-.43-5.13-.59 0,0-.05 4.62-.05 5 0 1.18 0 2.35 0 3.53 0 .23-.12 1.35 0 1.47a39.71 39.71 0 0 1 6.34 6.29 28.45 28.45 0 0 1 4.16 6.58 17 17 0 0 1 1.16 3.67c0 .3.1.61.14.91s0,.34.05.51c.25 2.75-2 12.25 0-8.26a12.39 12.39 0 0 1-.33 2c-.92 3.59-3.61 6.3-6.59 8.33a8.21 8.21 0 0 0 0 1.46c0 1.18 0 2.36 0 3.54s0 2.36 0 3.54c0 .23-.12 1.34 0 1.46 3.35 2.68 6.56 5.55 9.7 8.48 5.87 5.49 11.62 11.35 16.13 18 2.08 3.08 4 6.51 4.63 10.23a10 10 0 0 1 0-1.46c0-1.18 0-2.36 0-3.54a33.37 33.37 0 0 0 0-5 24.72 24.72 0 0 0-3.89-9.11 75.05 75.05 0 0 0-7.31-9.44 166.32 166.32 0 0 0-15.72-15.24c-1.16-1-2.33-2-3.54-3v10c2.95-2 5.61-4.68 6.56-8.21a25.29 25.29 0 0 0 .43-6.67c0-2.94.28-6-.34-9-1.12-5.28-4.81-9.85-8.58-13.53a36.33 36.33 0 0 0-3-2.67v10c10.34 1 21.14 3.14 30 8.9a30.46 30.46 0 0 1 12.54 15.83 34.2 34.2 0 0 1 1.64 9.07c0 .17 0 .35 0 .52 0,0 0,.31 0,.09v-.08c0,1.28 0,.22 0-3.16v-3.77s0-.32 0-.08,0,.4 0,.59c0,.76-.08 1.52-.15 2.27-.14 1.47-.34 2.93-.59 4.38a70.78 70.78 0 0 1-4.52 15q-1 2.46-2.23 4.85a21.37 21.37 0 0 0-1.2 2.27.53.53 0 0 1-.06.1 6.1 6.1 0 0 0 0 1.46c0 1.18 0 2.36 0 3.54s0 2.36 0 3.54A4.82 4.82 0 0 1 429.22 148.66Z" transform="translate(-5.12 -2.69)"/>
    <path class="cls-1" d="M249.71 301.61c.34 3.37.64 6.75.93 10.13q1 11.88 1.75 23.79.42 7 .71 14c.09 2.31.16 4.61.22 6.92l.06 3.13c0 .22 0 .93 0,.33 0,.25 0,.49 0,.74s0,.32 0,.49s0-.84 0-.41c0,1 0-.83 0-.1v-1c0,.3 0,.86 0-.49 0,.72 0-.79 0-.08 0,.24 0,1 0,.37 0,1 0,1.8-.06 2.75-.05 1.86-.13 3.72-.26 5.58a55.35 55.35 0 0 1-1.17 8.89c-.38 1.59-.86 3.59-2.17 4.69-2.85 2.41-7.53 1.82-10.89 1.17-8-1.56-15.79-5.2-23-9.1-.15-.08-.81-.54-.93-.47s-.16.78-.19.89a14.66 14.66 0 0 1-1.55 3.85c-2.46 4.18-6.89 5.47-11.48 4.32-4.41-1.1-8.39-3.69-12-6.38a92.66 92.66 0 0 1-7.92-6.74c-.71-.68-1.42-1.36-2.12-2.05a20.83 20.83 0 0 1-2.39-2.4c-.1-.15-.18-.32-.27-.48-4.53-8.1-8.27-17.22-9.48-26.46-.1-.74-.18-1.48-.23-2.23 0-.32 0-.64-.06-1-.16-2.86-.11 8.77 0,7.13l0-.47a23.48 23.48 0 0 1 .62-4.16v-10c-.7 5.26-1.11 10.57-1.36 15.86-.33 7-.34 14-.15 21a73.93 73.93 0 0 0 1.33 13.19c.74 3.47 1.89 7.6 4.88 9.83v-10a25.17 25.17 0 0 1-5.89-1.71 36.6 36.6 0 0 1-12.28-8.1 42.29 42.29 0 0 1-10.59-18.94A63.47 63.47 0 0 1 141.74 333c0-.09 0-.89 0-.64.07 1.45 0,3.29 0,4.74 0,1.72 0,1 0,.63 0-.72.05-1.45.08-2.18.08-1.67.2-3.33.37-5,.34-3.56.86-7.11 1.51-10.64.74-4 1.65-8 2.68-11.9a68.45 68.45 0 0 1 1.88-6.62c.51-1.33 1.1-2.63 1.65-3.94l8.2-19.65 11.47-27.48 11-26.32 6.59-15.79c.09-.22.3-1.09.51-1.21s.77.71 1,1l9.05 10.17 2.19 2.46v-9.82c-.16 6.44-.14 12.92.31 19.36A113.47 113.47 0 0 0 204 253.4c2.26 8 5.73 16.13 11.88 21.88 6.7 6.28 15.7 7.76 24.49 5.81.53-.11 2.55-.89 2.86-.62s.33 1.09.42 1.36l1.83 6 4 12.95.26.84a7.08 7.08 0 0 1 0-1.47c0-1.17 0-2.35 0-3.53s0-2.36 0-3.54a5.48 5.48 0 0 0 0-1.46l-5.19-16.89-1.11-3.62c0-.11-.1-.6-.21-.68s-1.93.46-2.34.56a32.48 32.48 0 0 1-10.8.83c-13-1.34-20.66-12.57-24.67-24-3.63-10.36-5.11-21.52-5.46-32.46c0-.19 0-.39 0-.58 0-.59 0,.36 0-.14 0-.18 0-.36 0-.55 0-.81 0,.56 0,.16 0-.72 0,1.17 0,.54v2c0,.94 0,2.18 0,2.81 0-.48 0,1 0,.42V220c0,1.46 0-.83 0-.81q0-3.53 0-7.07a4.56 4.56 0 0 0 0-1.48 3.36 3.36 0 0 0-.59-.66l-6.56-7.37-3.45-3.88c-.16-.18-1.34-1.8-1.57-1.75s-.56 1.31-.64 1.49l-1.8 4.32L178.89 218l-17.49 41.9-12.52 30c-.24.56-.5 1.12-.71 1.7a85 85 0 0 0-2.47 9q-1.08 4.35-1.92 8.75a120.49 120.49 0 0 0-2 15.94 165.36 165.36 0 0 0 0 20.16c.83 12.09 4.75 24.32 14 32.64a35.1 35.1 0 0 0 15.89 8.36c.31.06.62.13.93.17,0,0,.05-4.62.05-5 0-1.18 0-2.36 0-3.53 0-.23.11-1.36 0-1.47-2.33-1.73-3.49-4.67-4.27-7.37a54 54 0 0 1-1.76-11.73c-.06-1-.1-1.93-.14-2.9l0-1.35c0-.85 0,.58 0,.46,0,1.23 0,2.45 0,3.67 0-.87 0,.61 0-.27 0-.26 0-.52 0-.78 0-.44 0-.87 0-1.31q0-1.51.12-3,.25-5.19.77-10.37c.16-1.63.33-3.26.55-4.88a39.71 39.71 0 0 0 0-5c0-1.18 0-2.36 0-3.53a7.27 7.27 0 0 1 0-1.47c-1.11 4.56-.76 9.45-.72 14.09a51.63 51.63 0 0 0 .91 9.84 77.17 77.17 0 0 0 5.55 16.45q1.23 2.7 2.61 5.33a12.55 12.55 0 0 0 1.23 2.1 49.76 49.76 0 0 0 4.81 4.71c1.38 1.29 2.79 2.55 4.24 3.76a63.79 63.79 0 0 0 7.36 5.4c4.84 3 12.12 6.21 17.15 1.83a11.62 11.62 0 0 0 3-4.42 16.26 16.26 0 0 0 .63-1.9c0-.16.1-.93.22-1s.65.28.86.4c1.22.66 2.46 1.31 3.7 1.93a100 100 0 0 0 12.85 5.45c4.25 1.43 9.09 2.83 13.62 2.12 2.5-.4 4.3-1.5 5.21-3.85a30.75 30.75 0 0 0 1.58-7.84c.41-3.82.56-7.68.65-11.53.24-11.69 0-23.39-.53-35.07-.43-9-1-18-1.76-26.94-.41-5.11-.85-10.22-1.35-15.32 0-.24-.05-.48-.07-.72.16 1.61-.05 3.37-.05 5A49.06 49.06 0 0 0 249.71 301.61Z" transform="translate(-5.12 -2.69)"/>
    <path class="cls-1" d="M393.84 72.05a20.43 20.43 0 0 0-1.91-6.67 32.54 32.54 0 0 0-11-13c-8.15-5.78-18.2-8.38-28-9.5A127.48 127.48 0 0 0 330 42.58a202.38 202.38 0 0 0-29 4.06 163 163 0 0 0-46.7 17.78 167.15 167.15 0 0 0-33.2 25 173.46 173.46 0 0 0-20.9 24.3 136 136 0 0 0-9.63 15.45c-1.86 3.53-4 6.9-5.57 10.57a67.6 67.6 0 0 0-5.3 20.08 132.2 132.2 0 0 0-.29 18.67 61.48 61.48 0 0 0 2.2 13.94 65.68 65.68 0 0 0 6.08 14.5 7.53 7.53 0 0 1 0-1.46c0-1.18 0-2.36 0-3.54s0-2.35 0-3.53a4.5 4.5 0 0 0 0-1.47 63.93 63.93 0 0 1-8.27-28.75c-.08-1.78-.14 9.08 0,5.26 0-.53 0-1.05.08-1.58.07-1.07.18-2.15.31-3.21.23-1.93.55-3.85 1-5.74a69.45 69.45 0 0 1 2.82-9.7 61.22 61.22 0 0 1 5.46-11.29c.39-.62.71-1.21 1-1.86a128.07 128.07 0 0 1 8.12-13.5 173.45 173.45 0 0 1 18.85-23.12 169 169 0 0 1 30.68-25.07 161.77 161.77 0 0 1 43.44-19.32A192.4 192.4 0 0 1 319 53.64a159.59 159.59 0 0 1 25.38-1.34c11,.38 22.37 2.14 32.15 7.41a35.4 35.4 0 0 1 13.89 12.84 24.83 24.83 0 0 1 3.32 8.83c0,.11.07.73 0,.31.05.63.05-.8 0-.51 0-1 0-2 0-3 0-2,.12-4.12 0-6.15Z" transform="translate(-5.12 -2.69)"/>
    <path class="cls-1" d="M212.05 98.85a23.26 23.26 0 0 1-.25-2.5c0-.41 0-.82-.05-1.22v.26c0-.3 0-.16 0,.41v6.14c0,.56 0,.68 0,.37 0,.51 0-.49 0-.67.06-1.32.19-2.64.37-4a39 39 0 0 1 8.12-19.11 39.56 39.56 0 0 1 10.55-9c5.41-3.2 11.41-5.07 17.43-6.77a162 162 0 0 1 35.3-6.08 79.72 79.72 0 0 1 15.6.3c-.05 0 0-4.62 0-5a43 43 0 0 0 0-5 75.47 75.47 0 0 0-13.61-.39 159 159 0 0 0-36.17 5.86c-6.39 1.76-12.81 3.68-18.55 7.08A37.81 37.81 0 0 0 212 88.91a114.42 114.42 0 0 0-.29 15.49 18 18 0 0 0 .31 4.27c0,.06 0,.12 0,.18a11.65 11.65 0 0 1 0-1.46c0-1.18 0-2.36 0-3.54a30.91 30.91 0 0 0 0-5Z" transform="translate(-5.12 -2.69)"/>
    <path class="cls-1" d="M211.73 87.86a52.9 52.9 0 0 1-16.57-10.28A33.32 33.32 0 0 1 186 64.51a26 26 0 0 1-1.14-4.24c-.12-.67-.21-1.35-.27-2 0-.38-.06-.77-.08-1.15-.19-3.59-.22 11.14 0,7a32.32 32.32 0 0 1 2.53-10.36c3.81-9.15 10.67-17.34 18.23-23.64A72.13 72.13 0 0 1 231.46 16.4a98.42 98.42 0 0 1 26.92-3.71 118.53 118.53 0 0 1 25.36 2.37c7.33 1.57 14.42 4.63 18.52 11.22a26.43 26.43 0 0 1 2.54 5.41c.35 1,.66 2.08.92 3.14.14.56.28 1.13.38 1.7 0,.15 0,.29.07.44l.06.45q.27 4.62 0-8a47.53 47.53 0 0 1-3 12.81 31 31 0 0 1-1.88 4.35 5.69 5.69 0 0 0 0 1.47c0 1.18 0 2.35 0 3.53s0 2.36 0 3.54a5.16 5.16 0 0 1 0 1.46 45.48 45.48 0 0 0 4-11.51 33.82 33.82 0 0 0 .92-6.79c.06-3,.06-6.11 0-9.16a15.76 15.76 0 0 0-.27-2.91A28.59 28.59 0 0 0 301 14.41a22.81 22.81 0 0 0-8.76-6.7A48 48 0 0 0 280 4.37a130.18 130.18 0 0 0-13.36-1.45 109.9 109.9 0 0 0-27.52 1.62 77 77 0 0 0-28 11.19 68.76 68.76 0 0 0-21.95 23.61A37.93 37.93 0 0 0 185 50.7a32.59 32.59 0 0 0-.51 5.31 118.1 118.1 0 0 0 .11 11.9 28.33 28.33 0 0 0 6.89 15.82 48.41 48.41 0 0 0 11.81 9.85q2.46 1.5 5.05 2.76a18.6 18.6 0 0 0 3 1.36 3.47 3.47 0 0 1 .41.16 42.33 42.33 0 0 1 .05-5c0-1.18 0-2.36 0-3.54a6.91 6.91 0 0 0 0-1.46Z" transform="translate(-5.12 -2.69)"/>
    <path class="cls-1" d="M323.62 286.65c7 1.08 14.1 1.91 21.17 2.62 12.11 1.21 24.54 2.31 36.69 1.15a40.56 40.56 0 0 0 7.51-1.3 11.08 11.08 0 0 0 4.83-2.47V282.9a40 40 0 0 1-4.26 7.85 36.38 36.38 0 0 1-13.31 12.36c-7.65 3.89-15.94 3.29-24 .87a53.85 53.85 0 0 1-21.23-12.13 38.06 38.06 0 0 1-7.44-9 6.19 6.19 0 0 1 0 1.87c0,.46-.21 1.46 0 1.88a36.35 36.35 0 0 0 6 7.52 53.23 53.23 0 0 0 19.22 12.38c8 3 16.86 4.61 25.07 1.38 6-2.35 10.89-6.81 14.65-11.95a40.78 40.78 0 0 0 5.3-9.33 6.22 6.22 0 0 0 0-1.88c0-.29-.22-1.67 0-1.87-2.58 2.57-7 3.13-10.45 3.56A111.7 111.7 0 0 1 366 287c-11.64-.35-23.27-1.53-34.82-3-2.53-.32-5.06-.66-7.58-1.05C323.78 282.92 323.4 286.61 323.62 286.65Z" transform="translate(-5.12 -2.69)"/>
    <path class="cls-1" d="M231.07 261.27c.3 0 .59-.5.87-.5-.29 0-.58.5-.87.5Z" transform="translate(-5.12 -2.69)"/>
    <path class="cls-1" d="M232.37 260.52a6 6 0 0 0-3 1.1 9.77 9.77 0 0 0-2.86 2.29 22.84 22.84 0 0 0-3.85 8.39A57.27 57.27 0 0 0 220.83 285a66.71 66.71 0 0 0 .77 13.69 37.39 37.39 0 0 0 3.12 10.48c1 2 2.45 4.32 4.68 5.07a3.89 3.89 0 0 0 2.69-.08 13.65 13.65 0 0 0 1.77-.94 11.68 11.68 0 0 0 1.51-1c2.11-1.8 3.32-4.58 4.21-7.13a49.13 49.13 0 0 0 2.4-11.89 68.86 68.86 0 0 0-.2-14.28c-.13-1.11-.3-2.22-.49-3.33a8.45 8.45 0 0 1-.87.49c-.08.05-.88.44-.86.51a64.1 64.1 0 0 1-.59 25.66 27.83 27.83 0 0 1-3.39 8.67 9.73 9.73 0 0 1-2.22 2.52l-.33.24c-.44.32 1.82-.92 1-.6-.22.09-.44.18-.67.25a4 4 0 0 1-1.25.12c-2.07-.15-3.62-1.91-4.68-3.53a28.05 28.05 0 0 1-3.38-8.67 63.78 63.78 0 0 1-.68-25.15 37.84 37.84 0 0 1 2.89-9.89 16 16 0 0 1 2-3.33 8.55 8.55 0 0 1 1.16-1.17c.19-.16.4-.29.61-.44 0,0-1.85.95-1,.62l.38-.14a3.76 3.76 0 0 1 1.24-.21c.23 0,.67-.38.87-.49s.63-.51.86-.51Z" transform="translate(-5.12 -2.69)"/>
  </g>
</svg>